<svg width="24" height="24" viewBox="0 0 330 372" fill="none" xmlns="http://www.w3.org/2000/svg">
<path d="M208.88 371.81H130C119.839 371.804 111.481 363.441 111.481 353.28C111.481 352.061 111.601 350.845 111.84 349.65L118.84 314.5C119.27 312.304 118.54 310.034 116.91 308.5C107.41 299.5 90.04 280.5 80.39 254.03C80.114 253.329 79.972 252.583 79.972 251.83C79.972 248.539 82.681 245.83 85.972 245.83C88.543 245.83 90.841 247.483 91.66 249.92C100.47 274.08 116.43 291.53 125.15 299.78C129.803 304.149 131.869 310.635 130.6 316.89L123.6 352.04C123.519 352.455 123.477 352.877 123.477 353.3C123.477 356.881 126.419 359.83 130 359.84H208.92C211.819 359.827 214.381 357.894 215.19 355.11L218.58 343.25C220.866 335.336 228.153 329.842 236.39 329.82H296.61C300.186 329.815 303.129 326.876 303.14 323.3V271.8C303.122 266.146 305.706 260.787 310.14 257.28L315.31 253.19C317.54 251.415 318.355 248.371 317.31 245.72L305.1 214.11C303.601 210.24 303.45 205.976 304.67 202.01C312.97 175.18 305.67 151.77 282.87 132.44C264.65 116.97 242.87 109.66 240.4 108.88C240.06 108.77 239.73 108.65 239.4 108.52C234.82 106.75 193.46 91.8298 151.66 112.71C150.938 113.006 150.165 113.158 149.385 113.158C146.094 113.158 143.385 110.449 143.385 107.158C143.385 105.044 144.503 103.08 146.32 102C192.73 78.8198 238.66 95.3898 243.74 97.3598L244.1 97.4798C248.44 98.8798 271.1 106.7 290.66 123.32C317.05 145.73 325.86 174.18 316.15 205.59C315.732 206.975 315.789 208.461 316.31 209.81L328.52 241.43C331.467 248.974 329.11 257.618 322.74 262.62L317.57 266.72C316.006 267.952 315.094 269.839 315.1 271.83V323.3C315.084 333.457 306.727 341.809 296.57 341.82H236.35C233.449 341.832 230.883 343.765 230.07 346.55L226.69 358.4C224.393 366.304 217.111 371.787 208.88 371.81Z" fill="#2e3635"/>
<path d="M81.11 0.189941C77.718 0.189941 74.925 2.97794 74.92 6.36994V23.9999C74.917 24.0829 74.915 24.1659 74.915 24.2489C74.915 27.6439 77.709 30.4389 81.105 30.4389C84.501 30.4389 87.295 27.6439 87.295 24.2489C87.295 24.1659 87.293 24.0829 87.29 23.9999V6.36994C87.29 2.97994 84.5 0.189941 81.11 0.189941Z" fill="#2e3635"/>
<path d="M52.15 30.0998L43.34 14.8398C42.264 12.8408 40.169 11.5898 37.899 11.5898C34.508 11.5898 31.719 14.3798 31.719 17.7698C31.719 18.9098 32.034 20.0278 32.63 20.9998L41.44 36.2598C42.544 38.1718 44.592 39.3528 46.8 39.3498C47.886 39.3538 48.953 39.0678 49.89 38.5198C52.817 36.8278 53.837 33.0298 52.15 30.0998Z" fill="#2e3635"/>
<path d="M110 30.0998L118.81 14.8398C119.843 12.7158 122.006 11.3618 124.368 11.3618C127.758 11.3618 130.548 14.1518 130.548 17.5418C130.548 18.7738 130.179 19.9788 129.49 20.9998L120.68 36.2598C119.532 37.9598 117.61 38.9818 115.558 38.9818C112.168 38.9818 109.378 36.1918 109.378 32.8018C109.378 31.8658 109.591 30.9418 110 30.0998Z" fill="#2e3635"/>
<path d="M24.77 52.9998L9.51 44.1898C8.571 43.6478 7.505 43.3618 6.42 43.3618C3.028 43.3618 0.237 46.1528 0.237 49.5448C0.237 51.7518 1.419 53.7968 3.33 54.8998L18.59 63.7098C19.523 64.2588 20.587 64.5458 21.67 64.5398C25.061 64.5328 27.847 61.7408 27.847 58.3498C27.847 56.1488 26.672 54.1068 24.77 52.9998Z" fill="#2e3635"/>
<path d="M161.15 46.4C159.454 43.466 155.645 42.446 152.71 44.14L137.44 53C135.538 54.107 134.363 56.149 134.363 58.35C134.363 61.741 137.149 64.533 140.54 64.54C141.625 64.543 142.692 64.256 143.63 63.71L158.89 54.9C160.813 53.801 162.004 51.749 162.004 49.534C162.004 48.432 161.709 47.35 161.15 46.4Z" fill="#2e3635"/>
<path d="M96.38 258H71.85C58.899 257.984 48.246 247.331 48.23 234.38V221.38C48.23 218.088 50.938 215.38 54.23 215.38H114C117.292 215.38 120 218.088 120 221.38V234.33C120.011 247.3 109.35 257.984 96.38 258ZM60.23 227.43V234.38C60.241 240.75 65.48 245.989 71.85 246H96.38C102.758 245.989 108 240.738 108 234.36C108 234.35 108 234.34 108 234.33V227.38L60.23 227.43Z" fill="#2e3635"/>
<path d="M154.63 104.73C148.4 70.8362 118.573 45.9922 84.111 45.9922C44.778 45.9922 12.411 78.3582 12.411 117.692C12.411 141.629 24.399 164.042 44.31 177.33C46.774 178.985 48.248 181.772 48.23 184.74V239.84C48.219 249.788 56.392 257.984 66.34 258H101.47C111.639 257.989 120 249.619 120 239.45C120 239.44 120 239.43 120 239.42V183.87C120.025 181.342 121.329 178.99 123.46 177.63C143.655 164.405 155.842 141.82 155.81 117.68C155.807 113.337 155.412 109.002 154.63 104.73ZM143.79 119.31C143.25 138.822 133.183 156.881 116.87 167.6C111.361 171.174 108.019 177.303 108 183.87V239.42C107.995 243 105.05 245.945 101.47 245.95H66.34C62.99 245.945 60.235 243.19 60.23 239.84V184.74C60.254 177.771 56.785 171.235 51 167.35C34.432 156.368 24.445 137.766 24.445 117.889C24.445 102.4 30.509 87.5112 41.33 76.4302C52.258 64.9072 67.381 58.2602 83.26 58.0002H84.12C116.865 58.0002 143.81 84.9452 143.81 117.69C143.81 118.23 143.8 118.77 143.79 119.31Z" fill="#2e3635"/>
<path d="M114 227.38H54.23C50.938 227.38 48.23 224.672 48.23 221.38V196.29C48.23 192.998 50.938 190.29 54.23 190.29H114C117.292 190.29 120 192.998 120 196.29V221.38C120 224.672 117.292 227.38 114 227.38ZM60.23 215.38H108V202.29H60.23V215.38Z" fill="#2e3635"/>
<path d="M84.12 150.2C82.565 150.202 81.069 149.599 79.95 148.52L48 117.76C46.827 116.63 46.164 115.069 46.164 113.44C46.164 110.15 48.87 107.442 52.16 107.44H116.07C119.36 107.442 122.066 110.15 122.066 113.44C122.066 115.069 121.403 116.63 120.23 117.76L88.28 148.52C87.163 149.596 85.671 150.199 84.12 150.2ZM67 119.44L84.08 135.87L101.15 119.44H67Z" fill="#2e3635"/>
<path d="M84.12 202.29C80.828 202.29 78.12 199.582 78.12 196.29V144.2C78.12 140.908 80.828 138.2 84.12 138.2C87.412 138.2 90.12 140.908 90.12 144.2V196.29C90.12 199.582 87.412 202.29 84.12 202.29Z" fill="#2e3635"/>
<path d="M281.34 183.05C278.95 183.051 276.778 181.624 275.83 179.43C257.83 137.84 221.83 130.61 220.27 130.32C217.501 129.74 215.501 127.276 215.501 124.448C215.501 121.156 218.21 118.448 221.501 118.448C221.812 118.448 222.123 118.472 222.43 118.52C224.21 118.84 266.22 126.99 286.84 174.67C288.148 177.69 286.74 181.251 283.72 182.56C282.967 182.881 282.158 183.048 281.34 183.05Z" fill="#2e3635"/>
</svg>
