<svg width="24" height="24" viewBox="0 0 335 382" fill="none" xmlns="http://www.w3.org/2000/svg">
<path opacity="0.2" d="M287 378.1H35C17.3 378.1 3 363.8 3 346.1V45C3 27.3 17.3 13 35 13H287C304.7 13 319 27.3 319 45V346.1C319 363.8 304.7 378.1 287 378.1Z" fill="#241228" stroke="#241228" stroke-width="6" stroke-miterlimit="10" stroke-linecap="round" stroke-linejoin="round"/>
<path d="M300 360.7H48C30.3 360.7 16 346.4 16 328.7V58C16 40.3 30.3 26 48 26H300C317.7 26 332 40.3 332 58V328.7C332 346.4 317.7 360.7 300 360.7Z" fill="#EB6331"/>
<path d="M300 345.7H48C30.3 345.7 16 331.4 16 313.7V328.7C16 346.4 30.3 360.7 48 360.7H300C317.7 360.7 332 346.4 332 328.7V313.7C332 331.4 317.7 345.7 300 345.7Z" fill="#DD562C"/>
<path d="M300 360.7H48C30.3 360.7 16 346.4 16 328.7V58C16 40.3 30.3 26 48 26H300C317.7 26 332 40.3 332 58V328.7C332 346.4 317.7 360.7 300 360.7Z" stroke="#511C64" stroke-width="6" stroke-miterlimit="10" stroke-linecap="round" stroke-linejoin="round"/>
<path d="M300 337.7H48C30.3 337.7 16 323.4 16 305.7V35C16 17.3 30.3 3 48 3H300C317.7 3 332 17.3 332 35V305.7C332 323.4 317.7 337.7 300 337.7Z" fill="#FDA22F"/>
<path d="M300 337.7H48C30.3 337.7 16 323.4 16 305.7V35C16 17.3 30.3 3 48 3H300C317.7 3 332 17.3 332 35V305.7C332 323.4 317.7 337.7 300 337.7Z" fill="#FDA22F"/>
<path d="M34.7 305.7V35C34.7 17.3 49 3 66.7 3H48C30.3 3 16 17.3 16 35V305.7C16 323.4 30.3 337.7 48 337.7H66.7C49 337.7 34.7 323.4 34.7 305.7Z" fill="#FC9435"/>
<path d="M300 3H281.3C299 3 313.3 17.3 313.3 35V305.7C313.3 323.4 299 337.7 281.3 337.7H300C317.7 337.7 332 323.4 332 305.7V35C332 17.3 317.7 3 300 3Z" fill="#FFB331"/>
<path d="M300 337.7H48C30.3 337.7 16 323.4 16 305.7V35C16 17.3 30.3 3 48 3H300C317.7 3 332 17.3 332 35V305.7C332 323.4 317.7 337.7 300 337.7Z" stroke="#511C64" stroke-width="6" stroke-miterlimit="10" stroke-linecap="round" stroke-linejoin="round"/>
<path d="M286 108.7H62C57.6 108.7 54 105.1 54 100.7V48.7C54 44.3 57.6 40.7 62 40.7H286C290.4 40.7 294 44.3 294 48.7V100.7C294 105.1 290.4 108.7 286 108.7Z" fill="#A5F3FF"/>
<path d="M257.3 57.2L255.4 55.2L257.3 53.3H272L273.9 54.9001L271.9 57.2H257.3Z" fill="#511C64"/>
<path opacity="0.2" d="M252.9 72.4001V57.7L254.8 55.8L256.7 57.7V72.4001L254.8 74.3L252.9 72.4001Z" fill="#511C64"/>
<path d="M272.5 72.4V57.7L274.4 55.4L276.3 57.7V72.4L274.4 74.3L272.5 72.4Z" fill="#511C64"/>
<path opacity="0.2" d="M257.3 76.7L255.4 74.8L257.3 72.9H271.9L273.9 74.8L271.9 76.7H257.3Z" fill="#511C64"/>
<path opacity="0.2" d="M252.9 92.3001V77.6001L254.8 75.7001L256.7 77.6001V92.3001L254.8 94.2001L252.9 92.3001Z" fill="#511C64"/>
<path d="M272.5 92.3V77.6L274.4 75.4L276.3 77.6V92.3L274.4 94.2L272.5 92.3Z" fill="#511C64"/>
<path opacity="0.2" d="M257.3 96.7L255.4 94.7L257.3 92.8H271.9L273.9 94.7L271.9 96.7H257.3Z" fill="#511C64"/>
<path d="M222.7 57.2L220.7 55.2L222.7 53.3H237.3L239.2 54.9001L237.3 57.2H222.7Z" fill="#511C64"/>
<path opacity="0.2" d="M218.3 72.4001V57.7L220.2 55.8L222.1 57.7V72.4001L220.2 74.3L218.3 72.4001Z" fill="#511C64"/>
<path d="M237.9 72.4V57.7L239.8 55.4L241.7 57.7V72.4L239.8 74.3L237.9 72.4Z" fill="#511C64"/>
<path d="M222.7 76.7L220.7 74.8L222.7 72.9H237.3L239.2 74.8L237.3 76.7H222.7Z" fill="#511C64"/>
<path opacity="0.2" d="M218.3 92.3001V77.6001L220.2 75.7001L222.1 77.6001V92.3001L220.2 94.2001L218.3 92.3001Z" fill="#511C64"/>
<path d="M237.9 92.3V77.6L239.8 75.4L241.7 77.6V92.3L239.8 94.2L237.9 92.3Z" fill="#511C64"/>
<path d="M222.7 96.7L220.7 94.7L222.7 92.8H237.3L239.2 94.7L237.3 96.7H222.7Z" fill="#511C64"/>
<g opacity="0.2">
<path opacity="0.2" d="M153.2 57.2L151.3 55.2L153.2 53.3H167.9L169.8 54.9001L167.9 57.2H153.2Z" fill="#511C64"/>
<path opacity="0.2" d="M148.8 72.4001V57.7L150.8 55.8L152.7 57.7V72.4001L150.8 74.3L148.8 72.4001Z" fill="#511C64"/>
<path opacity="0.2" d="M168.4 72.4V57.7L170.3 55.4L172.3 57.7V72.4L170.3 74.3L168.4 72.4Z" fill="#511C64"/>
<path opacity="0.2" d="M153.2 76.7L151.3 74.8L153.2 72.9H167.9L169.8 74.8L167.9 76.7H153.2Z" fill="#511C64"/>
<path opacity="0.2" d="M148.8 92.3001V77.6001L150.8 75.7001L152.7 77.6001V92.3001L150.8 94.2001L148.8 92.3001Z" fill="#511C64"/>
<path opacity="0.2" d="M168.4 92.3V77.6L170.3 75.4L172.3 77.6V92.3L170.3 94.2L168.4 92.3Z" fill="#511C64"/>
<path opacity="0.2" d="M153.2 96.7L151.3 94.7L153.2 92.8H167.9L169.8 94.7L167.9 96.7H153.2Z" fill="#511C64"/>
</g>
<g opacity="0.2">
<path opacity="0.2" d="M187.9 57.2L186 55.2L187.9 53.3H202.6L204.5 54.9001L202.5 57.2H187.9Z" fill="#511C64"/>
<path opacity="0.2" d="M183.5 72.4001V57.7L185.4 55.8L187.4 57.7V72.4001L185.4 74.3L183.5 72.4001Z" fill="#511C64"/>
<path opacity="0.2" d="M203.1 72.4V57.7L205 55.4L207 57.7V72.4L205 74.3L203.1 72.4Z" fill="#511C64"/>
<path opacity="0.2" d="M187.9 76.7L186 74.8L187.9 72.9H202.6L204.5 74.8L202.6 76.7H187.9Z" fill="#511C64"/>
<path opacity="0.2" d="M183.5 92.3001V77.6001L185.4 75.7001L187.4 77.6001V92.3001L185.4 94.2001L183.5 92.3001Z" fill="#511C64"/>
<path opacity="0.2" d="M203.1 92.3V77.6L205 75.4L207 77.6V92.3L205 94.2L203.1 92.3Z" fill="#511C64"/>
<path opacity="0.2" d="M187.9 96.7L186 94.7L187.9 92.8H202.6L204.5 94.7L202.6 96.7H187.9Z" fill="#511C64"/>
</g>
<g opacity="0.2">
<path opacity="0.2" d="M83.8999 57.2L81.8999 55.2L83.8999 53.3H98.4999L100.4 54.9001L98.4999 57.2H83.8999Z" fill="#511C64"/>
<path opacity="0.2" d="M79.5 72.4001V57.7L81.4 55.8L83.3 57.7V72.4001L81.4 74.3L79.5 72.4001Z" fill="#511C64"/>
<path opacity="0.2" d="M99.1001 72.4V57.7L101 55.4L102.9 57.7V72.4L101 74.3L99.1001 72.4Z" fill="#511C64"/>
<path opacity="0.2" d="M83.8999 76.7L81.8999 74.8L83.8999 72.9H98.4999L100.4 74.8L98.4999 76.7H83.8999Z" fill="#511C64"/>
<path opacity="0.2" d="M79.5 92.3001V77.6001L81.4 75.7001L83.3 77.6001V92.3001L81.4 94.2001L79.5 92.3001Z" fill="#511C64"/>
<path opacity="0.2" d="M99.1001 92.3V77.6L101 75.4L102.9 77.6V92.3L101 94.2L99.1001 92.3Z" fill="#511C64"/>
<path opacity="0.2" d="M83.8999 96.7L81.8999 94.7L83.8999 92.8H98.4999L100.4 94.7L98.4999 96.7H83.8999Z" fill="#511C64"/>
</g>
<g opacity="0.2">
<path opacity="0.2" d="M118.5 57.2L116.6 55.2L118.5 53.3H133.2L135.1 54.9001L133.2 57.2H118.5Z" fill="#511C64"/>
<path opacity="0.2" d="M114.2 72.4001V57.7L116.1 55.8L118 57.7V72.4001L116.1 74.3L114.2 72.4001Z" fill="#511C64"/>
<path opacity="0.2" d="M133.7 72.4V57.7L135.7 55.4L137.6 57.7V72.4L135.7 74.3L133.7 72.4Z" fill="#511C64"/>
<path opacity="0.2" d="M118.5 76.7L116.6 74.8L118.5 72.9H133.2L135.1 74.8L133.2 76.7H118.5Z" fill="#511C64"/>
<path opacity="0.2" d="M114.2 92.3001V77.6001L116.1 75.7001L118 77.6001V92.3001L116.1 94.2001L114.2 92.3001Z" fill="#511C64"/>
<path opacity="0.2" d="M133.7 92.3V77.6L135.7 75.4L137.6 77.6V92.3L135.7 94.2L133.7 92.3Z" fill="#511C64"/>
<path opacity="0.2" d="M118.5 96.7L116.6 94.7L118.5 92.8H133.2L135.1 94.7L133.2 96.7H118.5Z" fill="#511C64"/>
</g>
<path opacity="0.43" d="M286 62.7H62C57.6 62.7 54 59.1 54 54.7V48.7C54 44.3 57.6 40.7 62 40.7H286C290.4 40.7 294 44.3 294 48.7V54.7C294 59.1 290.4 62.7 286 62.7Z" fill="#D2FCFB"/>
<path d="M286 108.7H62C57.6 108.7 54 105.1 54 100.7V48.7C54 44.3 57.6 40.7 62 40.7H286C290.4 40.7 294 44.3 294 48.7V100.7C294 105.1 290.4 108.7 286 108.7Z" stroke="#511C64" stroke-width="6" stroke-miterlimit="10" stroke-linecap="round" stroke-linejoin="round"/>
<path d="M103 209.5H55C50.6 209.5 47 205.9 47 201.5V153.5C47 149.1 50.6 145.5 55 145.5H103C107.4 145.5 111 149.1 111 153.5V201.5C111 206 107.4 209.5 103 209.5Z" fill="#FC9435" stroke="#FC9435" stroke-width="6" stroke-miterlimit="10"/>
<path d="M191.6 209.5H143.6C139.2 209.5 135.6 205.9 135.6 201.5V153.5C135.6 149.1 139.2 145.5 143.6 145.5H191.6C196 145.5 199.6 149.1 199.6 153.5V201.5C199.6 206 196 209.5 191.6 209.5Z" fill="#FC9435" stroke="#FC9435" stroke-width="6" stroke-miterlimit="10"/>
<path d="M103 298H55C50.6 298 47 294.4 47 290V242C47 237.6 50.6 234 55 234H103C107.4 234 111 237.6 111 242V290C111 294.5 107.4 298 103 298Z" fill="#FC9435" stroke="#FC9435" stroke-width="6" stroke-miterlimit="10"/>
<path d="M191.6 298H143.6C139.2 298 135.6 294.4 135.6 290V242C135.6 237.6 139.2 234 143.6 234H191.6C196 234 199.6 237.6 199.6 242V290C199.6 294.5 196 298 191.6 298Z" fill="#FC9435" stroke="#FC9435" stroke-width="6" stroke-miterlimit="10"/>
<path d="M279.6 298H231.6C227.2 298 223.6 294.4 223.6 290V153.5C223.6 149.1 227.2 145.5 231.6 145.5H279.6C284 145.5 287.6 149.1 287.6 153.5V290C287.6 294.5 284 298 279.6 298Z" fill="#FC9435" stroke="#FC9435" stroke-width="6" stroke-miterlimit="10"/>
<path d="M198 203.5H150C145.6 203.5 142 199.9 142 195.5V147.5C142 143.1 145.6 139.5 150 139.5H198C202.4 139.5 206 143.1 206 147.5V195.5C206 200 202.4 203.5 198 203.5Z" fill="#FF82A0"/>
<path d="M286 291.5H238C233.6 291.5 230 287.9 230 283.5V147.5C230 143.1 233.6 139.5 238 139.5H286C290.4 139.5 294 143.1 294 147.5V283.5C294 288 290.4 291.5 286 291.5Z" fill="#B078FD"/>
<path d="M241.9 284.5C239.8 284.5 238 282.8 238 280.6V139.5C233.6 139.5 230 143.1 230 147.5V283.5C230 287.9 233.6 291.5 238 291.5H286C290.1 291.5 293.4 288.4 293.9 284.5H241.9Z" fill="#A270F2"/>
<path d="M286 291.5H238C233.6 291.5 230 287.9 230 283.5V147.5C230 143.1 233.6 139.5 238 139.5H286C290.4 139.5 294 143.1 294 147.5V283.5C294 288 290.4 291.5 286 291.5Z" stroke="#511C64" stroke-width="6" stroke-miterlimit="10" stroke-linecap="round" stroke-linejoin="round"/>
<path d="M276.4 202.7H247.6V209.9H276.4V202.7Z" fill="#511C64"/>
<path d="M276.4 213.5H247.6V220.7H276.4V213.5Z" fill="#511C64"/>
<path d="M273.4 148.2H278.2C281.9 148.2 284.9 151.2 284.9 154.9V174.6" stroke="white" stroke-width="3" stroke-miterlimit="10" stroke-linecap="round" stroke-linejoin="round"/>
<path d="M153.9 196.5C151.8 196.5 150 194.8 150 192.6V139.5C145.6 139.5 142 143.1 142 147.5V195.5C142 199.9 145.6 203.5 150 203.5H198C202.1 203.5 205.4 200.4 205.9 196.5H153.9Z" fill="#F27095"/>
<path d="M198 203.5H150C145.6 203.5 142 199.9 142 195.5V147.5C142 143.1 145.6 139.5 150 139.5H198C202.4 139.5 206 143.1 206 147.5V195.5C206 200 202.4 203.5 198 203.5Z" stroke="#511C64" stroke-width="6" stroke-miterlimit="10" stroke-linecap="round" stroke-linejoin="round"/>
<path d="M186.5 168.4H161.4V174.7H186.5V168.4Z" fill="#511C64"/>
<path d="M190.2 148.2H192.4C194.9 148.2 197 150.3 197 152.8V159.7" stroke="white" stroke-width="3" stroke-miterlimit="10" stroke-linecap="round" stroke-linejoin="round"/>
<path d="M110 203.5H62C57.6 203.5 54 199.9 54 195.5V147.5C54 143.1 57.6 139.5 62 139.5H110C114.4 139.5 118 143.1 118 147.5V195.5C118 200 114.4 203.5 110 203.5Z" fill="#FF82A0"/>
<path d="M65.9 196.5C63.8 196.5 62 194.8 62 192.6V139.5C57.6 139.5 54 143.1 54 147.5V195.5C54 199.9 57.6 203.5 62 203.5H110C114.1 203.5 117.4 200.4 117.9 196.5H65.9Z" fill="#F27095"/>
<path d="M110 203.5H62C57.6 203.5 54 199.9 54 195.5V147.5C54 143.1 57.6 139.5 62 139.5H110C114.4 139.5 118 143.1 118 147.5V195.5C118 200 114.4 203.5 110 203.5Z" stroke="#511C64" stroke-width="6" stroke-miterlimit="10" stroke-linecap="round" stroke-linejoin="round"/>
<path d="M97.1 168.4H72V174.7H97.1V168.4Z" fill="#511C64"/>
<path d="M87.6758 184.11L87.6758 159.01L81.3758 159.01L81.3758 184.11L87.6758 184.11Z" fill="#511C64"/>
<path d="M101.7 148.2H103.9C106.4 148.2 108.5 150.3 108.5 152.8V159.7" stroke="white" stroke-width="3" stroke-miterlimit="10" stroke-linecap="round" stroke-linejoin="round"/>
<path d="M110 291.5H62C57.6 291.5 54 287.9 54 283.5V235.5C54 231.1 57.6 227.5 62 227.5H110C114.4 227.5 118 231.1 118 235.5V283.5C118 288 114.4 291.5 110 291.5Z" fill="#FF82A0"/>
<path d="M65.9 284.5C63.8 284.5 62 282.8 62 280.6V227.5C57.6 227.5 54 231.1 54 235.5V283.5C54 287.9 57.6 291.5 62 291.5H110C114.1 291.5 117.4 288.4 117.9 284.5H65.9Z" fill="#F27095"/>
<path d="M110 291.5H62C57.6 291.5 54 287.9 54 283.5V235.5C54 231.1 57.6 227.5 62 227.5H110C114.4 227.5 118 231.1 118 235.5V283.5C118 288 114.4 291.5 110 291.5Z" stroke="#511C64" stroke-width="6" stroke-miterlimit="10" stroke-linecap="round" stroke-linejoin="round"/>
<path d="M97.0597 266.158L79.3115 248.409L74.8568 252.864L92.605 270.612L97.0597 266.158Z" fill="#511C64"/>
<path d="M79.3778 270.61L97.126 252.862L92.6713 248.407L74.923 266.155L79.3778 270.61Z" fill="#511C64"/>
<path d="M101.7 236.9H103.9C106.4 236.9 108.5 239 108.5 241.5V248.4" stroke="white" stroke-width="3" stroke-miterlimit="10" stroke-linecap="round" stroke-linejoin="round"/>
<path d="M198 291.5H150C145.6 291.5 142 287.9 142 283.5V235.5C142 231.1 145.6 227.5 150 227.5H198C202.4 227.5 206 231.1 206 235.5V283.5C206 288 202.4 291.5 198 291.5Z" fill="#FF82A0"/>
<path d="M153.9 284.5C151.8 284.5 150 282.8 150 280.6V227.5C145.6 227.5 142 231.1 142 235.5V283.5C142 287.9 145.6 291.5 150 291.5H198C202.1 291.5 205.4 288.4 205.9 284.5H153.9Z" fill="#F27095"/>
<path d="M198 291.5H150C145.6 291.5 142 287.9 142 283.5V235.5C142 231.1 145.6 227.5 150 227.5H198C202.4 227.5 206 231.1 206 235.5V283.5C206 288 202.4 291.5 198 291.5Z" stroke="#511C64" stroke-width="6" stroke-miterlimit="10" stroke-linecap="round" stroke-linejoin="round"/>
<path d="M186.5 256.4H161.4V262.7H186.5V256.4Z" fill="#511C64"/>
<path d="M177.164 272.079L177.164 265.779L170.864 265.779L170.864 272.079L177.164 272.079Z" fill="#511C64"/>
<path d="M177.107 253.222L177.107 246.922L170.807 246.922L170.807 253.222L177.107 253.222Z" fill="#511C64"/>
<path d="M190.2 236.9H192.4C194.9 236.9 197 239 197 241.5V248.4" stroke="white" stroke-width="3" stroke-miterlimit="10" stroke-linecap="round" stroke-linejoin="round"/>
</svg>
