<svg width="24" height="24" viewBox="0 0 62 60" fill="none" xmlns="http://www.w3.org/2000/svg">
<path d="M60 36H55C54.447 36 54 36.448 54 37V43H50C49.447 43 49 43.448 49 44V58H45V47C45 46.448 44.553 46 44 46H39C38.447 46 38 46.448 38 47V53H34C33.447 53 33 53.448 33 54V58H29V40C29 39.448 28.553 39 28 39H23C22.447 39 22 39.448 22 40V47H18C17.447 47 17 47.448 17 48V58H13V44C13 43.448 12.553 43 12 43H7C6.447 43 6 43.448 6 44V50H2C1.447 50 1 50.448 1 51V58V59V60H2H7H12H18H23H28H34H39H44H50H55H60H61V59V58V37C61 36.448 60.553 36 60 36ZM3 52H6V58H3V52ZM8 58V51V45H11V58H8ZM19 49H22V58H19V49ZM24 58V48V41H27V58H24ZM35 55H38V58H35V55ZM40 58V54V48H43V58H40ZM51 45H54V58H51V45ZM56 58V44V38H59V58H56Z" fill="#2e3635"/>
<path d="M51.236 25.3542L40.646 37.8712L26.394 34.0702L16.515 28.1432C16.158 27.9292 15.703 27.9582 15.375 28.2202L0.375 40.2202L1.625 41.7822L16.082 30.2172L25.485 35.8592C25.565 35.9072 25.652 35.9442 25.742 35.9682L40.742 39.9682C41.119 40.0682 41.513 39.9432 41.763 39.6482L52.279 27.2202L60.593 30.9152L61.405 29.0882L52.405 25.0882C52 24.9042 51.523 25.0152 51.236 25.3542Z" fill="#2e3635"/>
<path d="M8.692 23.204C10.075 23.732 11.523 24 13 24C16.095 24 19.05 22.796 21.267 20.681L24.293 23.707C24.48 23.895 24.734 24 25 24H37V22H25.414L22.588 19.174C23.663 17.747 24.426 16.107 24.77 14.356C24.923 13.593 25 12.8 25 12C25 10.916 24.851 9.858 24.573 8.841L31.414 2H49V0H31C30.734 0 30.48 0.105 30.293 0.293L23.803 6.783C21.822 2.673 17.66 0 13 0C6.383 0 1 5.383 1 12C1 13.598 1.309 15.15 1.917 16.616C3.179 19.628 5.647 22.029 8.692 23.204ZM4.197 16.749L6.996 15.586C7.626 16.638 8.521 17.508 9.585 18.102L8.495 20.929C6.678 20.007 5.17 18.54 4.197 16.749ZM8 12C8 9.243 10.243 7 13 7C15.757 7 18 9.243 18 12C18 12.335 17.967 12.663 17.901 12.974L18.88 13.18L17.899 12.987C17.442 15.312 15.382 17 13 17C12.382 17 11.779 16.888 11.204 16.665C9.937 16.185 8.909 15.186 8.383 13.925L7.46 14.31L8.381 13.921C8.128 13.322 8 12.676 8 12ZM13 22C12.104 22 11.22 21.878 10.362 21.644L11.451 18.819C11.956 18.935 12.473 19 13 19C15.993 19 18.609 17.087 19.581 14.339L22.551 14.932C22.139 16.279 21.454 17.534 20.508 18.6C18.612 20.761 15.875 22 13 22ZM22.501 8.863C22.501 8.864 22.501 8.864 22.501 8.865C22.832 9.86 23 10.915 23 12C23 12.327 22.984 12.652 22.953 12.974L19.981 12.381C19.988 12.254 20 12.128 20 12C20 8.481 17.386 5.568 14 5.08V2.055C17.905 2.444 21.25 5.078 22.501 8.863ZM12 2.051V5.08C8.614 5.568 6 8.481 6 12C6 12.598 6.081 13.178 6.225 13.74L3.427 14.903C3.144 13.967 3 12.994 3 12C3 6.823 6.954 2.554 12 2.051Z" fill="#2e3635"/>
<path d="M49 22H39V24H49V22Z" fill="#2e3635"/>
<path d="M49 18H39V20H49V18Z" fill="#2e3635"/>
<path d="M49 14H39V16H49V14Z" fill="#2e3635"/>
<path d="M61 0H51V2H61V0Z" fill="#2e3635"/>
<path d="M61 4H51V6H61V4Z" fill="#2e3635"/>
<path d="M61 8H51V10H61V8Z" fill="#2e3635"/>
<path d="M53 12H51V14H53V12Z" fill="#2e3635"/>
<path d="M57 12H55V14H57V12Z" fill="#2e3635"/>
<path d="M61 12H59V14H61V12Z" fill="#2e3635"/>
</svg>
