<svg  width="24" height="24" viewBox="0 0 84 84" fill="none" xmlns="http://www.w3.org/2000/svg">
<path d="M79.1371 30.436C78.7021 30.436 78.3391 30.357 78.0071 30.245L77.5121 30.032C76.4831 29.443 76.0211 28.283 75.7411 27.093C77.9531 25.064 79.8931 21.443 80.5881 15.087C81.1691 9.771 81.1001 5.721 78.8681 3.233C77.6721 1.899 75.9001 1.082 73.3651 0.693C72.2221 0.472 70.9131 0.343 69.3921 0.343C67.9281 0.343 66.6601 0.46 65.5531 0.666C62.9211 1.043 61.0961 1.868 59.8721 3.234C57.6411 5.722 57.5711 9.772 58.1521 15.088C58.8471 21.444 60.7861 25.065 62.9991 27.094C62.7121 28.297 62.2481 29.45 61.2251 30.034L60.7381 30.244C60.4061 30.357 60.0421 30.436 59.6051 30.436C59.4651 30.436 59.3381 30.443 59.2011 30.444C59.5681 25.24 57.4841 19.824 52.9841 16.779C49.5421 14.45 44.5801 14.214 40.8451 16.028C40.5781 16.158 40.0541 16.616 39.7671 16.587C32.9821 15.823 32.0221 25.468 32.4571 30.352C31.7191 30.26 30.9311 30.212 30.0891 30.212C28.4481 30.212 27.5551 29.333 27.0471 27.23C29.0851 25.34 30.8661 21.986 31.5051 16.133C32.0441 11.208 31.9781 7.452 29.9001 5.134C29.4051 4.582 28.7951 4.134 28.0791 3.763C26.6711 2.345 24.1871 0.774 20.0601 0.774C13.6871 0.774 11.4041 1.963 11.4041 1.963C11.4041 3.439 11.6321 4.601 11.9561 5.539C10.1931 7.878 10.1391 11.474 10.6481 16.133C11.2881 21.987 13.0691 25.34 15.1071 27.23C14.5981 29.333 13.7061 30.212 12.0651 30.212C4.62506 30.212 1.15906 33.69 1.15906 41.157C1.15906 41.71 1.60606 42.157 2.15906 42.157C2.71206 42.157 3.15906 41.71 3.15906 41.157C3.15906 35.163 5.45906 32.52 11.0301 32.24C11.5501 35.502 15.7821 37.986 21.0191 37.986C26.2571 37.986 30.4911 35.5 31.0091 32.237C31.6301 32.264 32.1981 32.33 32.7391 32.418C33.2651 35.444 34.3201 38.371 37.0551 40.256C37.6491 40.665 38.4011 40.824 39.1291 40.909C39.1561 40.912 39.1941 40.91 39.2261 40.911C39.4481 41.19 39.6731 41.466 39.9071 41.721C39.8381 42.535 39.4101 44.762 36.7901 45.184C33.8901 45.651 31.3291 46.961 29.4051 48.773C29.9311 49.186 30.4391 49.621 30.9261 50.078C31.7651 49.322 32.7421 48.672 33.8261 48.169C34.6691 53.341 39.7121 57.357 45.7081 57.357C51.7041 57.357 56.7461 53.34 57.5881 48.168C61.1751 49.833 63.6131 53.076 63.6131 56.612C63.6131 57.165 64.0601 57.612 64.6131 57.612C65.1661 57.612 65.6131 57.165 65.6131 56.612C65.6131 51.105 60.8881 46.191 54.6241 45.183C52.0051 44.762 51.5761 42.536 51.5071 41.721C51.8171 41.383 52.1151 41.018 52.4041 40.638C54.8551 39.898 56.6611 38.405 57.7781 36.036C58.2851 34.961 58.6481 33.822 58.8951 32.655C60.1481 37.089 66.4381 40.807 66.7061 40.963L67.3491 41.339L68.2261 39.864L68.3421 40.016L67.0851 43.535H69.3751H71.6651L70.4081 40.026L70.5241 39.864L71.4011 41.339L72.0441 40.963C72.3131 40.807 78.6301 37.073 79.8641 32.627L79.9131 32.452C87.5901 32.634 88.8761 35.539 88.8761 42.21C88.8761 42.763 89.3231 43.21 89.8761 43.21C90.4291 43.21 90.8761 42.763 90.8761 42.21C90.8711 34.574 89.0011 30.436 79.1371 30.436ZM12.6361 15.917C12.4511 14.223 12.3621 12.794 12.3711 11.58C13.0781 10.377 13.8781 9.464 13.8781 9.464C13.8781 9.464 15.5601 10.836 19.3881 10.836C22.5271 10.836 24.1511 10.379 27.0991 8.732C28.2331 9.212 29.1411 10.544 29.7841 11.807C29.7801 12.971 29.6911 14.328 29.5171 15.916C28.9381 21.219 27.0021 27.54 21.0771 27.54C15.1521 27.54 13.2151 21.219 12.6361 15.917ZM21.0191 36.486C16.6961 36.486 13.0671 34.595 12.5381 32.174C14.6221 32.01 16.0651 30.776 16.8321 28.477C18.3481 29.31 19.8721 29.539 21.0771 29.539C22.2821 29.539 23.8071 29.31 25.3231 28.476C26.0761 30.733 27.4801 31.965 29.5031 32.164C28.9791 34.591 25.3461 36.486 21.0191 36.486ZM54.3041 47.159C54.9421 47.262 55.5601 47.413 56.1561 47.604C55.6001 52.221 51.0921 55.858 45.7071 55.858C40.3211 55.858 35.8121 52.221 35.2571 47.604C35.8531 47.413 36.4711 47.262 37.1091 47.159C39.8021 46.726 41.0881 44.927 41.6141 43.302C43.0161 44.379 44.4671 44.996 45.7081 44.996C46.9491 44.996 48.3991 44.379 49.8011 43.302C50.3251 44.927 51.6121 46.725 54.3041 47.159ZM45.7061 42.996C43.0791 42.996 37.8311 38.018 37.8311 31.481C37.8311 30.476 37.8451 29.533 37.8831 28.643C39.3961 26.873 41.1831 24.469 41.9141 22.242C41.9141 22.242 43.0331 25.474 46.0161 26.531C48.8141 27.522 52.2271 28.254 53.5641 29.776C53.5751 30.327 53.5811 30.891 53.5811 31.481C53.5811 38.018 48.3331 42.996 45.7061 42.996ZM62.0391 22.366C61.1131 20.403 60.4731 17.9 60.1421 14.869C60.0151 13.711 59.9321 12.671 59.8881 11.726C68.3681 11.536 73.4731 8.488 75.7601 6.682C75.7631 6.684 75.7671 6.685 75.7701 6.687C75.7881 6.67 75.8071 6.647 75.8251 6.629C76.0681 6.435 76.2801 6.257 76.4571 6.1L76.2741 7.047C77.4141 7.958 78.2831 9.357 78.8871 10.582C78.8751 11.809 78.7801 13.223 78.6001 14.869C78.2691 17.9 77.6281 20.403 76.7021 22.366C75.6701 20.639 69.3701 20.515 69.3701 20.515C69.3701 20.515 63.0711 20.64 62.0391 22.366ZM69.3711 24.433C68.8181 24.433 68.3711 24.88 68.3711 25.433V26.456H67.1101C66.1431 26.456 65.3601 25.673 65.3601 24.706C65.3601 23.739 66.1431 22.956 67.1101 22.956H71.8861C72.8531 22.956 73.6361 23.739 73.6361 24.706C73.6361 25.673 72.8531 26.456 71.8861 26.456H70.3701V25.433C70.3711 24.88 69.9241 24.433 69.3711 24.433ZM66.8291 39.272C65.3151 38.283 61.5221 35.571 60.4511 32.611L60.7101 32.332C61.0891 32.262 61.4401 32.145 61.7741 32C63.5251 33.879 66.0511 36.267 68.1831 36.996L66.8291 39.272ZM69.3711 35.716C67.8821 35.716 65.2151 33.446 63.0551 31.173C63.7761 30.501 64.3241 29.548 64.7121 28.343C66.3741 29.285 68.0511 29.54 69.3711 29.54C70.6911 29.54 72.3671 29.284 74.0281 28.344C74.4141 29.549 74.9631 30.502 75.6861 31.175C73.5261 33.446 70.8601 35.716 69.3711 35.716ZM71.9131 39.272L70.5591 36.995C72.6911 36.267 75.2171 33.879 76.9681 32C77.3041 32.146 77.6581 32.264 78.0411 32.334L78.2921 32.611C77.2201 35.576 73.4271 38.285 71.9131 39.272Z" fill="#484848"/>
<path d="M33.953 73.32C33.818 72.784 33.273 72.462 32.74 72.591L28.872 73.556C30.047 71.373 30.672 68.915 30.672 66.422C30.672 58.111 23.911 51.351 15.601 51.351C7.29103 51.351 0.530029 58.112 0.530029 66.423C0.530029 74.733 7.29103 81.493 15.601 81.493C17.768 81.493 19.861 81.043 21.821 80.154C22.324 79.925 22.547 79.333 22.319 78.83C22.09 78.327 21.499 78.103 20.995 78.332C19.297 79.103 17.481 79.493 15.601 79.493C8.39303 79.493 2.53003 73.63 2.53003 66.423C2.53003 64.497 2.95903 62.673 3.71003 61.026C3.89603 62.149 4.40903 63.228 5.27403 64.093C6.37703 65.196 7.82503 65.747 9.27303 65.747C10.721 65.747 12.169 65.195 13.272 64.093C15.476 61.888 15.476 58.3 13.272 56.096C12.428 55.252 11.362 54.722 10.208 54.53C11.855 53.78 13.677 53.352 15.601 53.352C22.809 53.352 28.672 59.215 28.672 66.423C28.672 68.657 28.098 70.863 27.013 72.802C27.01 72.807 27.011 72.812 27.008 72.816L25.933 68.502C25.798 67.967 25.254 67.643 24.72 67.773C24.185 67.907 23.859 68.45 23.991 68.986L25.592 75.405C25.706 75.859 26.113 76.163 26.562 76.163C26.642 76.163 26.724 76.153 26.805 76.134L33.224 74.533C33.76 74.399 34.086 73.856 33.953 73.32ZM11.858 62.679C10.477 64.06 8.06903 64.06 6.68803 62.679C5.26303 61.253 5.26303 58.935 6.68803 57.51C7.37803 56.82 8.29603 56.439 9.27303 56.439C10.25 56.439 11.168 56.82 11.858 57.51C13.283 58.935 13.283 61.253 11.858 62.679Z" fill="#484848"/>
</svg>
