<svg width="24" height="24" viewBox="0 0 84 84" fill="none" xmlns="http://www.w3.org/2000/svg">
<path d="M17.303 48.1152C16.776 48.1152 16.349 48.5412 16.349 49.0692V50.2402C16.349 50.7672 16.776 51.1942 17.303 51.1942C17.83 51.1942 18.257 50.7672 18.257 50.2402V49.0692C18.257 48.5412 17.83 48.1152 17.303 48.1152Z" fill="#2e3635"/>
<path d="M17.303 33.3101C16.776 33.3101 16.349 33.7371 16.349 34.2641V43.4661C16.349 43.9941 16.776 44.4201 17.303 44.4201C17.83 44.4201 18.257 43.9941 18.257 43.4661V34.2641C18.257 33.7371 17.83 33.3101 17.303 33.3101Z" fill="#2e3635"/>
<path d="M67.421 22.5248H66.84V20.9788C66.84 17.9098 64.344 15.4138 61.275 15.4138H56.621C56.441 12.5068 54.019 10.1968 51.067 10.1968H50.765H45.808C44.121 10.1968 42.818 10.9528 42 12.2618C41.182 10.9528 39.879 10.1968 38.192 10.1968H33.235H32.933C29.981 10.1968 27.559 12.5068 27.379 15.4138H22.725C19.656 15.4138 17.16 17.9098 17.16 20.9788V22.5248H16.579C13.511 22.5248 11.014 25.0208 11.014 28.0898V55.9098C11.014 58.9788 13.511 61.4748 16.579 61.4748H17.16V63.0208C17.16 66.0898 19.656 68.5858 22.725 68.5858H27.379C27.559 71.4928 29.981 73.8028 32.933 73.8028H38.192C39.879 73.8028 41.182 73.0468 42 71.7378C42.818 73.0468 44.121 73.8028 45.808 73.8028H51.067C54.019 73.8028 56.441 71.4928 56.621 68.5858H61.275C64.344 68.5858 66.84 66.0898 66.84 63.0208V62.7178V61.4748H67.421C70.489 61.4748 72.986 58.9788 72.986 55.9098V28.0898C72.986 25.0208 70.489 22.5248 67.421 22.5248ZM38.192 71.8948H32.933C30.916 71.8948 29.276 70.2548 29.276 68.2378V67.6318C29.276 67.1048 28.849 66.6778 28.322 66.6778H23.027C20.844 66.6778 19.068 64.9008 19.068 62.7178V60.5208V59.3118C19.068 57.1288 20.844 55.3528 23.027 55.3528C23.554 55.3528 23.981 54.9258 23.981 54.3988C23.981 53.8708 23.554 53.4448 23.027 53.4448C19.792 53.4448 17.16 56.0758 17.16 59.3118V59.5668H16.579C14.563 59.5668 12.922 57.9258 12.922 55.9098V28.0898C12.922 26.0738 14.563 24.4328 16.579 24.4328H17.16V25.9328C17.16 29.2738 19.878 31.9918 23.218 31.9918C23.745 31.9918 24.172 31.5648 24.172 31.0378C24.172 30.5108 23.745 30.0838 23.218 30.0838C20.93 30.0838 19.068 28.2218 19.068 25.9328V23.4788V20.9788C19.068 18.9628 20.709 17.3218 22.725 17.3218H27.368V19.4708C27.368 22.7048 30 25.3368 33.235 25.3368C33.762 25.3368 34.189 24.9108 34.189 24.3828C34.189 23.8558 33.762 23.4288 33.235 23.4288C31.052 23.4288 29.276 21.6528 29.276 19.4708V16.3678V16.0638C29.276 13.8808 31.052 12.1048 33.235 12.1048H38.192C40.675 12.1048 41.046 14.5618 41.046 16.0258V57.6038H37.773C35.59 57.6038 33.813 55.8288 33.813 53.6458V50.2398C33.813 49.7118 33.386 49.2858 32.859 49.2858C32.333 49.2858 31.905 49.7118 31.905 50.2398V53.6458C31.905 56.8808 34.537 59.5118 37.773 59.5118H41.046V67.9738C41.046 69.4378 40.675 71.8948 38.192 71.8948ZM71.078 55.9098C71.078 57.9258 69.437 59.5668 67.421 59.5668H66.84V59.3118C66.84 56.0758 64.208 53.4448 60.973 53.4448C60.446 53.4448 60.019 53.8708 60.019 54.3988C60.019 54.9258 60.446 55.3528 60.973 55.3528C63.156 55.3528 64.932 57.1288 64.932 59.3118V62.7178C64.932 64.9008 63.156 66.6778 60.973 66.6778H55.678C55.151 66.6778 54.724 67.1048 54.724 67.6318V68.2378C54.724 70.2548 53.084 71.8948 51.067 71.8948H45.808C43.325 71.8948 42.954 69.4378 42.954 67.9738V30.9328H46.227C48.41 30.9328 50.187 32.7088 50.187 34.8908V38.2978C50.187 39.3558 49.775 40.3498 49.027 41.0968C48.654 41.4698 48.654 42.0738 49.027 42.4458C49.213 42.6328 49.457 42.7258 49.702 42.7258C49.946 42.7258 50.19 42.6328 50.376 42.4458C51.484 41.3388 52.095 39.8658 52.095 38.2978V34.8908C52.095 31.6568 49.463 29.0248 46.227 29.0248H42.954V24.3828V16.0258C42.954 14.5618 43.325 12.1048 45.808 12.1048H50.765C52.948 12.1048 54.724 13.8808 54.724 16.0638V19.4708C54.724 21.6528 52.948 23.4288 50.765 23.4288C50.238 23.4288 49.811 23.8558 49.811 24.3828C49.811 24.9108 50.238 25.3368 50.765 25.3368C54 25.3368 56.632 22.7048 56.632 19.4708V17.3218H61.275C63.291 17.3218 64.932 18.9628 64.932 20.9788V25.9328C64.932 28.2218 63.07 30.0838 60.782 30.0838C60.255 30.0838 59.828 30.5108 59.828 31.0378C59.828 31.5648 60.255 31.9918 60.782 31.9918C64.122 31.9918 66.84 29.2738 66.84 25.9328V24.4328H67.421C69.437 24.4328 71.078 26.0738 71.078 28.0898V55.9098Z" fill="#2e3635"/>
<path d="M42 5.609C42.527 5.609 42.954 5.183 42.954 4.655V1.454C42.954 0.927 42.527 0.5 42 0.5C41.473 0.5 41.046 0.927 41.046 1.454V4.655C41.046 5.183 41.473 5.609 42 5.609Z" fill="#2e3635"/>
<path d="M68.407 16.547C68.651 16.547 68.895 16.454 69.082 16.267L71.345 14.004C71.718 13.632 71.718 13.028 71.345 12.655C70.972 12.283 70.369 12.283 69.996 12.655L67.733 14.918C67.36 15.291 67.36 15.895 67.733 16.267C67.919 16.454 68.163 16.547 68.407 16.547Z" fill="#2e3635"/>
<path d="M82.546 41.0459H79.345C78.818 41.0459 78.391 41.4729 78.391 41.9999C78.391 42.5269 78.818 42.9539 79.345 42.9539H82.546C83.073 42.9539 83.5 42.5269 83.5 41.9999C83.5 41.4729 83.073 41.0459 82.546 41.0459Z" fill="#2e3635"/>
<path d="M69.082 67.7329C68.709 67.3599 68.105 67.3599 67.733 67.7329C67.36 68.1049 67.36 68.7089 67.733 69.0819L69.996 71.3449C70.182 71.5309 70.426 71.6239 70.671 71.6239C70.915 71.6239 71.159 71.5309 71.345 71.3449C71.718 70.9719 71.718 70.3679 71.345 69.9959L69.082 67.7329Z" fill="#2e3635"/>
<path d="M42 78.3911C41.473 78.3911 41.046 78.8171 41.046 79.3451V82.5461C41.046 83.0731 41.473 83.5001 42 83.5001C42.527 83.5001 42.954 83.0731 42.954 82.5461V79.3451C42.954 78.8171 42.527 78.3911 42 78.3911Z" fill="#2e3635"/>
<path d="M14.918 67.7329L12.655 69.9959C12.282 70.3679 12.282 70.9719 12.655 71.3449C12.841 71.5309 13.085 71.6239 13.329 71.6239C13.574 71.6239 13.818 71.5309 14.004 71.3449L16.267 69.0819C16.64 68.7089 16.64 68.1049 16.267 67.7329C15.895 67.3599 15.291 67.3599 14.918 67.7329Z" fill="#2e3635"/>
<path d="M4.655 41.0459H1.454C0.927 41.0459 0.5 41.4729 0.5 41.9999C0.5 42.5269 0.927 42.9539 1.454 42.9539H4.655C5.182 42.9539 5.609 42.5269 5.609 41.9999C5.609 41.4729 5.182 41.0459 4.655 41.0459Z" fill="#2e3635"/>
<path d="M14.918 16.267C15.105 16.454 15.349 16.547 15.593 16.547C15.837 16.547 16.081 16.454 16.267 16.267C16.64 15.895 16.64 15.291 16.267 14.918L14.004 12.655C13.631 12.283 13.028 12.283 12.655 12.655C12.282 13.028 12.282 13.632 12.655 14.004L14.918 16.267Z" fill="#2e3635"/>
</svg>
