<svg width="24" height="24" viewBox="0 0 173 151" fill="none" xmlns="http://www.w3.org/2000/svg">
<path d="M138.096 59.656C143.114 63.957 148.08 68.232 149.207 69.179H111.319C105.738 68.974 101.95 67.515 99.108 65.57C96.983 64.085 95.345 62.293 94.065 60.271C92.145 57.276 91.044 53.794 90.456 50.901C89.893 48.008 89.842 45.704 89.842 45.116V44.681C89.637 37.846 88.281 32.29 86.079 27.862C82.802 21.181 77.58 17.263 72.869 15.292C68.133 13.295 63.909 13.039 61.63 13.014C60.99 13.014 60.504 13.039 60.222 13.065H37.105C34.596 5.71797 27.633 0.417969 19.441 0.417969C9.12399 0.417969 0.752991 8.78897 0.752991 19.106C0.752991 29.423 9.12399 37.794 19.441 37.794C28.324 37.794 35.722 31.599 37.642 23.304H60.682L60.913 23.279H60.938C61.041 23.279 61.271 23.254 61.681 23.254C62.577 23.254 64.215 23.331 66.058 23.766C67.44 24.099 68.951 24.611 70.384 25.404C72.56 26.607 74.659 28.373 76.374 31.343C78.089 34.313 79.42 38.562 79.625 44.886C79.625 44.937 79.625 45.014 79.625 45.091C79.65 47.011 79.778 54.717 83.746 62.755C85.743 66.748 88.789 70.844 93.321 73.968C93.372 73.993 93.423 74.019 93.449 74.045C93.372 74.096 93.321 74.122 93.244 74.173C89.967 76.375 87.433 79.139 85.564 82.006C82.748 86.333 81.289 90.889 80.521 94.755C79.728 98.62 79.625 101.846 79.625 103.561C79.625 104.022 79.625 104.329 79.65 104.56C79.471 110.141 78.37 114.109 76.962 117.001C74.786 121.328 71.893 123.401 68.949 124.681C66.031 125.936 63.061 126.14 61.704 126.14C61.397 126.14 61.192 126.14 61.064 126.115H60.961L60.73 126.09H37.357C35.002 118.435 27.91 112.881 19.488 112.881C9.17099 112.881 0.799992 121.252 0.799992 131.569C0.799992 141.886 9.17099 150.257 19.488 150.257C28.166 150.257 35.437 144.344 37.536 136.33H60.269C60.576 136.355 61.037 136.381 61.702 136.381C63.212 136.381 65.593 136.253 68.435 135.588C70.56 135.076 72.915 134.283 75.321 132.951C78.93 130.98 82.591 127.831 85.28 123.146C87.969 118.461 89.683 112.394 89.913 104.714V104.253C89.913 104.202 89.913 103.946 89.913 103.536C89.888 101.386 90.271 94.909 93.062 89.559C94.444 86.871 96.339 84.464 99.027 82.621C101.715 80.829 105.273 79.498 110.496 79.293C110.701 79.293 110.88 79.318 111.085 79.344H149.254C148.102 80.343 143.161 84.592 138.143 88.867C132.434 93.756 138.143 103.51 138.143 103.51L172.242 74.224L138.092 45.015C138.092 45.015 132.383 54.769 138.092 59.658L138.096 59.656ZM25.405 25.121C23.869 26.657 21.77 27.604 19.44 27.604C17.085 27.604 15.011 26.657 13.475 25.121C11.939 23.585 10.992 21.486 10.992 19.156C10.992 16.801 11.939 14.727 13.475 13.191C15.011 11.655 17.11 10.708 19.44 10.708C21.795 10.708 23.869 11.655 25.405 13.191C26.941 14.727 27.888 16.826 27.888 19.156C27.888 21.485 26.941 23.585 25.405 25.121ZM25.405 137.633C23.869 139.169 21.77 140.116 19.44 140.116C17.085 140.116 15.011 139.169 13.475 137.633C11.939 136.097 10.992 133.998 10.992 131.668C10.992 129.313 11.939 127.239 13.475 125.703C15.011 124.167 17.11 123.22 19.44 123.22C21.795 123.22 23.869 124.167 25.405 125.703C26.941 127.239 27.888 129.338 27.888 131.668C27.888 133.997 26.941 136.071 25.405 137.633Z" fill="#2e3635"/>
</svg>
