<svg width="24" height="24" viewBox="0 0 662 450" fill="none" xmlns="http://www.w3.org/2000/svg">
<path d="M618.3 398.572H24.2C10.8 398.572 0 387.772 0 374.372C0 360.972 10.8 350.172 24.2 350.172H618.3C631.7 350.172 642.5 360.972 642.5 374.372C642.5 387.672 631.7 398.572 618.3 398.572Z" fill="#2B2727"/>
<path d="M538.9 126.472V74.5721C538.9 54.6721 522.8 38.5721 502.9 38.5721C483 38.5721 466.9 54.6721 466.9 74.5721V126.372C466.9 159.472 440 186.372 406.9 186.372V338.372C406.9 351.672 417.6 362.372 430.9 362.372H574.9C588.2 362.372 598.9 351.672 598.9 338.372V186.372C565.7 186.472 538.9 159.572 538.9 126.472Z" fill="#72361F"/>
<path d="M505.3 46.5721H488.9V54.872H505.3V46.5721Z" fill="#72361F"/>
<path d="M524.9 135.472V83.5721C524.9 63.6721 508.8 47.5721 488.9 47.5721C469 47.5721 452.9 63.6721 452.9 83.5721V135.372C452.9 168.472 426 195.372 392.9 195.372V347.372C392.9 360.672 403.6 371.372 416.9 371.372H560.9C574.2 371.372 584.9 360.672 584.9 347.372V195.372C551.7 195.472 524.9 168.572 524.9 135.472Z" fill="#5B3318"/>
<path d="M584.9 195.472C562.3 195.472 542.7 182.972 532.4 164.572L476.9 186.972L448.8 202.572L515.4 212.972L584.9 199.172V195.472V195.472Z" fill="#5B3318"/>
<path d="M488.9 96.2721C495.527 96.2721 500.9 90.8995 500.9 84.2721C500.9 77.6446 495.527 72.2721 488.9 72.2721C482.272 72.2721 476.9 77.6446 476.9 84.2721C476.9 90.8995 482.272 96.2721 488.9 96.2721Z" fill="#783F21"/>
<path d="M157.9 47.5721H143.9V51.2721H157.9V47.5721Z" fill="#72361F"/>
<path d="M489 72.2721H143.9V96.2721H489V72.2721Z" fill="#783F21"/>
<g opacity="0.4">
<g opacity="0.4">
<path opacity="0.4" d="M164.1 39.2721C165.3 47.5721 172.2 92.472 205.4 107.972C209.4 109.872 225.5 117.372 234.1 110.672C245.4 101.772 231 77.4721 243.4 62.6721C251.4 53.0721 267.1 51.672 277.4 53.372C313 59.272 313.7 107.672 348.1 115.372C369.9 120.272 392.9 106.072 404.8 98.6721C429.6 83.3721 434 66.9721 448.8 66.6721C457.9 66.4721 471.3 72.272 488.1 101.972" stroke="#300F0F" stroke-width="6" stroke-miterlimit="10" stroke-linecap="round" stroke-linejoin="round"/>
<path opacity="0.4" d="M191.4 58.5721C187.6 64.3721 187 71.5721 190.1 77.2721C193.1 82.7721 198.4 84.7721 200.1 85.2721C201.9 85.8721 208.4 87.572 214.1 83.972C219.7 80.372 222.5 72.8721 220.8 65.2721" stroke="#300F0F" stroke-width="6" stroke-miterlimit="10" stroke-linecap="round" stroke-linejoin="round"/>
<path opacity="0.4" d="M254.7 98.572C254.2 97.172 249.8 84.472 257.4 73.272C257.8 72.572 264.3 63.172 272.7 62.572C284.6 61.672 299.3 78.472 304 105.872" stroke="#300F0F" stroke-width="6" stroke-miterlimit="10" stroke-linecap="round" stroke-linejoin="round"/>
<path opacity="0.4" d="M270.7 80.572C267.3 82.272 266.7 89.172 268.7 93.872C269.1 94.772 271.6 100.472 276 100.572C280.3 100.672 284.2 95.272 284 90.572C283.8 83.772 274.9 78.572 270.7 80.572Z" stroke="#300F0F" stroke-width="6" stroke-miterlimit="10" stroke-linecap="round" stroke-linejoin="round"/>
<path opacity="0.4" d="M328.1 57.972C328.4 61.272 329.3 67.572 333.4 73.972C339.3 83.172 347.7 86.772 350.7 87.972C353.6 89.172 362.8 92.772 373.4 89.972C380.4 88.172 383.2 84.6721 400.7 68.6721C406.8 63.0721 411.8 58.672 414.7 55.972" stroke="#300F0F" stroke-width="6" stroke-miterlimit="10" stroke-linecap="round" stroke-linejoin="round"/>
<path opacity="0.4" d="M432.1 102.572C433 94.372 438.4 87.772 445.4 85.872C446.1 85.672 455.3 83.372 461.4 89.872C465.8 94.572 465.5 100.672 465.4 101.872" stroke="#300F0F" stroke-width="6" stroke-miterlimit="10" stroke-linecap="round" stroke-linejoin="round"/>
<path opacity="0.4" d="M360.1 60.5721C360.1 69.6721 364.5 76.3721 369.4 77.2721C373.6 77.9721 377.6 74.2721 379.4 72.5721C384.4 67.9721 385.7 62.172 386.1 59.872" stroke="#300F0F" stroke-width="6" stroke-miterlimit="10" stroke-linecap="round" stroke-linejoin="round"/>
</g>
</g>
<path opacity="0.44" d="M291.7 72.2721H275.8V96.0721H291.7V72.2721Z" fill="#72361F"/>
<path opacity="0.44" d="M214.1 72.2721H189V96.0721H214.1V72.2721Z" fill="#72361F"/>
<path opacity="0.44" d="M406.9 72.2721H384.9V96.0721H406.9V72.2721Z" fill="#72361F"/>
<path d="M266.1 63.7721H266L257.3 40.372L264.4 7.77206H283.3L290.5 40.372L281.7 63.7721V134.072H266.1V63.7721Z" fill="#C9C9C9"/>
<path d="M276.7 63.7721L285.5 40.372L278.3 7.77206H283.3L290.5 40.372L281.7 63.7721V134.072H276.7V63.7721Z" fill="#B5B5B5"/>
<path d="M249.8 278.972V164.872C249.8 159.372 253.1 154.572 257.9 152.572C259.9 151.772 260.2 149.072 258.5 147.672L251.8 142.072C250 140.572 249 138.372 249 136.072V130.772C249 128.772 250.6 127.172 252.6 127.172H295C297 127.172 298.6 128.772 298.6 130.772V136.072C298.6 138.372 297.6 140.572 295.8 142.072L289.1 147.672C287.5 149.072 287.8 151.672 289.7 152.572C294.5 154.672 297.8 159.372 297.8 164.872V278.972C297.8 286.372 291.8 292.372 284.4 292.372H263C255.8 292.472 249.8 286.372 249.8 278.972Z" fill="#F45145"/>
<path d="M290 278.972V164.872C290 159.372 286.7 154.572 281.9 152.572C279.9 151.772 279.6 149.072 281.3 147.672L288 142.072C289.8 140.572 290.8 138.372 290.8 136.072V130.772C290.8 128.772 289.2 127.172 287.2 127.172H295.2C297.2 127.172 298.8 128.772 298.8 130.772V136.072C298.8 138.372 297.8 140.572 296 142.072L289.3 147.672C287.7 149.072 288 151.672 289.9 152.572C294.7 154.672 298 159.372 298 164.872V278.972C298 286.372 292 292.372 284.6 292.372H276.6C284 292.472 290 286.372 290 278.972Z" fill="#DB493E"/>
<path d="M269.6 272.872V177.572C269.6 174.772 267.4 172.572 264.6 172.572C261.8 172.572 259.6 174.772 259.6 177.572V272.872C259.6 275.672 261.8 277.872 264.6 277.872C267.4 277.872 269.6 275.572 269.6 272.872Z" fill="#AA3930"/>
<path d="M288.1 272.872V177.572C288.1 174.772 285.9 172.572 283.1 172.572C280.3 172.572 278.1 174.772 278.1 177.572V272.872C278.1 275.672 280.3 277.872 283.1 277.872C285.9 277.872 288.1 275.572 288.1 272.872Z" fill="#AA3930"/>
<path d="M416 7.27207C414.4 9.07207 412 11.672 410 13.872C407.9 16.172 404.4 16.5721 401.8 14.6721C396.1 10.5721 386.7 3.47206 374.8 2.57206C357.6 1.17206 346 7.27205 335.5 15.4721C320 27.6721 310.2 42.2721 305 51.2721C308.9 54.6721 310.6 55.6721 313.6 58.1721C318.5 53.0721 328.1 42.372 341.7 38.972C343.8 38.472 347.5 37.572 351.9 38.972C353.4 39.472 356.2 40.572 358.7 43.372C363 48.172 362.7 54.072 362.7 55.372V94.1721H388.2V57.0721C387.7 50.5721 390.5 44.5721 395.4 42.0721C395.8 41.8721 400.6 39.4721 405.3 41.2721C408.7 42.5721 412.9 46.4721 416.1 49.5721C416.4 49.8721 417.2 50.5721 418.5 51.0721C419.2 51.2721 420 51.472 420.7 51.372C425.3 51.272 434.7 51.0721 441.2 50.7721C444.3 50.6721 446.7 48.1721 446.7 45.0721V11.2721C446.7 8.17207 444.2 5.67206 441.1 5.57206C434.9 5.47206 426.1 5.27206 420.8 5.17206C419 5.17206 417.2 5.97207 416 7.27207Z" fill="#C9C9C9"/>
<path d="M349.8 37.172C347 33.972 343.6 32.672 342 32.072C337 30.472 332.6 31.472 330.2 32.072C322.7 33.872 316.3 37.6721 311 41.7721C308.6 45.2721 306.6 48.472 305 51.172C308.9 54.572 310.6 55.572 313.6 58.072C318.5 52.972 328.1 42.272 341.7 38.872C343.6 38.372 347 37.572 351 38.572C350.7 38.272 350.3 37.772 349.8 37.172Z" fill="#ABABAB"/>
<path d="M445.3 45.7721C437.8 45.9721 426.9 46.2721 421.6 46.3721C420.7 46.3721 419.8 46.2721 419 45.9721C417.5 45.4721 416.5 44.5721 416.2 44.2721C412.5 40.7721 407.6 36.2721 403.7 34.7721C398.3 32.6721 392.7 35.5721 392.3 35.7721C386.7 38.7721 383.5 45.5721 384 53.1721V94.3721H388.3V57.2721C387.8 50.7721 390.6 44.7721 395.5 42.2721C395.9 42.0721 400.7 39.6721 405.4 41.4721C408.8 42.7721 413 46.6721 416.2 49.7721C416.5 50.0721 417.3 50.7721 418.6 51.2721C419.3 51.4721 420.1 51.6721 420.8 51.5721C425.4 51.4721 434.8 51.2721 441.3 50.9721C444.2 50.8721 446.6 48.5721 446.8 45.7721C446.3 45.6721 445.8 45.7721 445.3 45.7721Z" fill="#ABABAB"/>
<path d="M378.6 271.272H373.8C361.2 271.272 351.2 258.872 351.6 243.972L356.3 94.2721H396.1L400.8 243.972C401.2 258.872 391.2 271.272 378.6 271.272Z" fill="#3B69A9"/>
<path d="M400.8 243.972L396.1 94.2721H386.4L391.1 243.972C391.5 257.872 382.8 269.572 371.4 271.072C372.2 271.172 373 271.272 373.8 271.272H378.6C391.2 271.272 401.2 258.872 400.8 243.972Z" fill="#355E98"/>
<path d="M401.3 106.372H351.1C347.8 106.372 345.1 103.672 345.1 100.372C345.1 97.072 347.8 94.372 351.1 94.372H401.3C404.6 94.372 407.3 97.072 407.3 100.372C407.3 103.672 404.6 106.372 401.3 106.372Z" fill="#355E98"/>
<path opacity="0.23" d="M354.4 160.072L397.1 130.672L398 157.772L353.7 182.572L354.4 160.072Z" fill="#72361F"/>
<path d="M514.8 45.1721L249.1 250.972L301 317.872L595.3 148.072L514.8 45.1721Z" fill="#C9C9C9"/>
<path d="M583.7 131.272L288.2 301.272L301.4 318.172L591.6 150.172L583.7 131.272Z" fill="#E1E1E1"/>
<path d="M656 80.272L601.3 9.67205C592.9 -1.22795 577.2 -3.22795 566.3 5.27205L560.5 9.77205L580.9 36.072C582.3 35.572 583.7 35.372 585.2 35.372H585.3C585.6 35.372 586 35.372 586.3 35.372C586.4 35.372 586.4 35.372 586.5 35.372C587.4 35.472 588.4 35.572 589.3 35.872C589.4 35.872 589.6 35.972 589.7 35.972C589.9 36.072 590.1 36.072 590.4 36.172C590.6 36.272 590.8 36.272 591 36.372C591.2 36.472 591.4 36.572 591.6 36.572C591.8 36.672 592.1 36.772 592.3 36.872C592.4 36.972 592.6 36.972 592.7 37.072C593.1 37.272 593.4 37.4721 593.7 37.7721C593.8 37.8721 593.9 37.972 594.1 38.072C594.3 38.272 594.6 38.472 594.8 38.572C594.9 38.672 595 38.772 595.2 38.872C595.4 39.072 595.6 39.272 595.9 39.472C596 39.572 596.1 39.6721 596.2 39.7721C596.5 40.0721 596.8 40.4721 597.1 40.7721L623.1 74.372C623.4 74.772 623.6 75.072 623.9 75.472C624 75.572 624 75.672 624.1 75.872C624.3 76.172 624.4 76.372 624.5 76.672C624.6 76.772 624.6 76.972 624.7 77.072C624.8 77.372 624.9 77.572 625.1 77.872C625.2 77.972 625.2 78.172 625.3 78.272C625.4 78.672 625.6 79.072 625.7 79.472C625.7 79.672 625.8 79.772 625.8 79.972C625.9 80.272 625.9 80.472 626 80.772C626 80.972 626.1 81.172 626.1 81.372C626.1 81.572 626.1 81.772 626.2 81.972C626.2 82.172 626.2 82.472 626.3 82.672C626.3 82.872 626.3 82.972 626.3 83.172C626.3 84.172 626.2 85.072 626.1 85.972C626.1 86.072 626.1 86.072 626.1 86.172C626 86.472 626 86.772 625.9 87.172V87.272C625.5 88.672 624.9 89.972 624.1 91.272L645.7 119.172L649.1 117.172C661.9 109.672 665.3 92.272 656 80.272Z" fill="#FDC457"/>
<path d="M617.3 67.0721L591.3 33.472C591 33.072 590.7 32.772 590.4 32.472C590.3 32.372 590.2 32.2721 590.1 32.1721C589.9 31.9721 589.7 31.7721 589.4 31.5721C589.3 31.4721 589.2 31.3721 589 31.2721C588.8 31.0721 588.5 30.8721 588.3 30.7721C588.2 30.6721 588.1 30.572 587.9 30.472C587.6 30.272 587.2 29.9721 586.9 29.7721C586.8 29.6721 586.6 29.6721 586.5 29.5721C586.3 29.4721 586 29.3721 585.8 29.2721C585.6 29.1721 585.4 29.0721 585.2 29.0721C585 28.9721 584.8 28.972 584.6 28.872C584.4 28.772 584.2 28.6721 583.9 28.6721C583.8 28.6721 583.6 28.5721 583.5 28.5721C582.6 28.2721 581.6 28.1721 580.7 28.0721C580.6 28.0721 580.6 28.0721 580.5 28.0721C580.2 28.0721 579.8 28.0721 579.5 28.0721H579.4C578 28.0721 576.5 28.3721 575.1 28.7721L560.6 9.67206L581 35.972C582.4 35.472 583.8 35.2721 585.3 35.2721H585.4C585.7 35.2721 586.1 35.2721 586.4 35.2721C586.5 35.2721 586.5 35.2721 586.6 35.2721C587.5 35.3721 588.5 35.4721 589.4 35.7721C589.5 35.7721 589.7 35.872 589.8 35.872C590 35.972 590.2 35.9721 590.5 36.0721C590.7 36.1721 590.9 36.1721 591.1 36.2721C591.3 36.3721 591.5 36.472 591.7 36.472C591.9 36.572 592.2 36.6721 592.4 36.7721C592.5 36.8721 592.7 36.872 592.8 36.972C593.2 37.172 593.5 37.3721 593.8 37.6721C593.9 37.7721 594 37.872 594.2 37.972C594.4 38.172 594.7 38.372 594.9 38.472C595 38.572 595.1 38.6721 595.3 38.7721C595.5 38.9721 595.7 39.172 596 39.372C596.1 39.472 596.2 39.5721 596.3 39.6721C596.6 39.9721 596.9 40.3721 597.2 40.6721L617.9 67.372C617.6 67.472 617.4 67.2721 617.3 67.0721Z" fill="#F2B24C"/>
<path d="M656 80.2721L651.1 73.972C659.3 85.872 655.7 102.372 643 109.772L639.6 111.772L623.8 91.2721L645.4 119.172L648.8 117.172C661.9 109.672 665.3 92.2721 656 80.2721Z" fill="#F2B24C"/>
<path d="M593.7 37.872C593.4 37.672 593 37.3721 592.7 37.1721C593 37.3721 593.4 37.672 593.7 37.872Z" fill="#323B40"/>
<path d="M595.1 38.972C595.3 39.172 595.5 39.3721 595.7 39.5721C595.6 39.3721 595.4 39.172 595.1 38.972Z" fill="#323B40"/>
<path d="M592.3 36.972C592.1 36.872 591.8 36.7721 591.6 36.6721C591.8 36.7721 592 36.872 592.3 36.972Z" fill="#323B40"/>
<path d="M625.9 81.472C625.9 81.672 625.9 81.8721 626 82.0721C626 81.8721 625.9 81.672 625.9 81.472Z" fill="#323B40"/>
<path d="M591 36.372C590.9 36.372 590.8 36.2721 590.7 36.2721C590.8 36.3721 590.9 36.372 591 36.372Z" fill="#323B40"/>
<path d="M625.8 80.5721C625.8 80.6721 625.8 80.772 625.9 80.872C625.8 80.772 625.8 80.6721 625.8 80.5721Z" fill="#323B40"/>
<path d="M625.2 78.472C625.3 78.672 625.4 78.9721 625.4 79.2721C625.3 78.9721 625.3 78.672 625.2 78.472Z" fill="#323B40"/>
<path d="M624.7 77.2721C624.8 77.3721 624.8 77.5721 624.9 77.6721C624.8 77.4721 624.7 77.3721 624.7 77.2721Z" fill="#323B40"/>
<path d="M623.7 91.2721C622.8 92.6721 621.7 93.872 620.4 94.872L611.9 101.472C599.1 111.372 580.8 109.072 570.9 96.2721L562.9 85.872C553 73.072 555.3 54.772 568.1 44.872L576.6 38.2721C577.9 37.2721 579.4 36.472 581 35.972L560.6 9.67206L507.3 50.972L586.5 153.172L648.8 117.172L645.4 119.172L623.7 91.2721Z" fill="#323B40"/>
<path d="M624 75.972C624.1 76.072 624.2 76.272 624.2 76.372C624.2 76.272 624.1 76.172 624 75.972Z" fill="#323B40"/>
<path d="M623 74.472C623.3 74.872 623.5 75.1721 623.8 75.5721C623.5 75.2721 623.3 74.872 623 74.472Z" fill="#323B40"/>
<path d="M645.3 119.172L586.4 153.172L581 146.272L639.7 111.972L645.3 119.172Z" fill="#2D363A"/>
<path d="M570.9 371.472H220.7V195.472H584.8V357.472C584.9 365.172 578.6 371.472 570.9 371.472Z" fill="#7D4025"/>
<g opacity="0.08">
<path opacity="0.08" d="M246.7 320.672C255.7 305.472 287.5 322.272 273 338.972C261.7 352.072 238.1 335.272 246.7 320.672ZM246.7 320.672C251.3 312.872 243.2 326.572 246.7 320.672Z" stroke="#300F0F" stroke-width="6" stroke-miterlimit="10" stroke-linecap="round" stroke-linejoin="round"/>
<path opacity="0.08" d="M283.6 182.872C283.7 207.172 291.8 243.772 306.9 256.172C336.9 280.672 431.6 240.172 432.9 200.872C434.5 152.772 296.4 104.572 277.6 127.572C271.8 134.672 272.3 155.172 275.9 156.272C277.1 156.672 278.2 154.072 279.6 154.372C283.8 154.972 283.6 177.772 283.6 182.872Z" stroke="#300F0F" stroke-width="5.8435" stroke-miterlimit="10" stroke-linecap="round" stroke-linejoin="round"/>
<path opacity="0.08" d="M221 203.772C197.1 270.272 292.3 257.272 310.1 301.172C328.9 347.472 267.7 383.672 231.8 394.272" stroke="#300F0F" stroke-width="6" stroke-miterlimit="10" stroke-linecap="round" stroke-linejoin="round"/>
<path opacity="0.08" d="M224.4 301.272C264.8 273.672 306.3 297.872 281.7 343.372C267.3 369.972 238.2 383.572 208.8 385.272" stroke="#300F0F" stroke-width="6" stroke-miterlimit="10" stroke-linecap="round" stroke-linejoin="round"/>
<path opacity="0.08" d="M560.9 256.172C564.8 258.572 571.5 261.772 579.9 261.772C583.7 261.772 588.5 261.672 592.6 258.372C593.7 257.472 597 254.772 597.1 251.272C597.3 244.972 587.6 238.872 578.8 238.272C571.7 237.872 561.7 240.872 559.8 248.072C559 251.272 560 254.272 560.9 256.172Z" stroke="#300F0F" stroke-width="6" stroke-miterlimit="10" stroke-linecap="round" stroke-linejoin="round"/>
<path opacity="0.08" d="M547.8 279.472C556.9 284.472 565.9 283.072 583.8 280.172C595.9 278.272 602.5 277.072 609.2 271.672C611.1 270.172 621.1 262.072 621.9 249.772C623 233.872 608 220.872 595.8 215.872C574.6 207.272 554.9 219.972 551.4 222.172C545.3 226.172 530.3 235.772 530.2 251.772C530.1 264.472 539.2 274.772 547.8 279.472Z" stroke="#300F0F" stroke-width="6" stroke-miterlimit="10" stroke-linecap="round" stroke-linejoin="round"/>
<path opacity="0.08" d="M618.7 299.272C613.4 303.372 596 316.172 572 313.272C552.8 310.972 540.7 299.872 537.3 296.572C522.3 281.872 519.9 264.172 519.3 258.572C518.7 252.972 517.3 239.572 524.5 225.072C530.6 212.872 539.5 206.372 545 202.472C567.6 186.272 592 188.572 596.5 189.072C604.9 189.972 617.6 191.372 629 201.072C649 218.072 646.4 246.472 645.9 251.172C643.3 279.872 622.7 296.272 618.7 299.272Z" stroke="#300F0F" stroke-width="6" stroke-miterlimit="10" stroke-linecap="round" stroke-linejoin="round"/>
<path opacity="0.08" d="M628.3 312.572C625 315.772 619.8 320.072 612.6 323.572C585 336.772 554.1 323.972 536.9 316.872C519.2 309.572 507 301.072 490.2 289.572C461.1 269.472 457.6 261.072 438.9 256.272C432.9 254.672 413.7 250.072 394.4 258.772C388.6 261.372 384.2 264.772 379.6 268.572C357.3 286.772 351.1 307.372 331.6 350.572C327.1 360.572 320.4 375.072 311.6 392.572" stroke="#300F0F" stroke-width="6" stroke-miterlimit="10" stroke-linecap="round" stroke-linejoin="round"/>
<path opacity="0.08" d="M355.6 446.572C371.4 451.672 403.5 379.672 425.1 387.372C437.2 391.672 436 417.672 445.6 418.572C456.2 419.472 466.6 388.572 467.6 385.572C470.1 377.872 487 326.672 458.6 293.572C454.7 289.072 445.9 279.072 431.4 275.872C431.4 275.872 415.9 272.472 397.6 281.572C349.3 305.272 335.1 439.872 355.6 446.572Z" stroke="#300F0F" stroke-width="6" stroke-miterlimit="10" stroke-linecap="round" stroke-linejoin="round"/>
<path opacity="0.08" d="M397.6 359.572C403.3 363.772 417.8 353.872 425.6 344.572C429.5 339.972 437.7 330.272 434 322.772C431.1 316.972 422.2 314.872 415.6 316.572C408.1 318.472 404.6 325.072 401.6 330.572C396.8 339.472 392 355.472 397.6 359.572Z" stroke="#300F0F" stroke-width="6" stroke-miterlimit="10" stroke-linecap="round" stroke-linejoin="round"/>
<path opacity="0.08" d="M436.6 160.872C446.4 170.972 457.3 185.372 454.2 199.672C451.9 210.272 443.2 214.772 444.9 217.572C448.2 223.072 484.8 215.172 508.9 189.572C521.7 175.972 527.6 160.872 530.4 150.972" stroke="#300F0F" stroke-width="6" stroke-miterlimit="10" stroke-linecap="round" stroke-linejoin="round"/>
<path opacity="0.08" d="M339.6 219.572C347.2 227.772 362.2 234.972 373.6 229.572C384.6 224.372 387 209.972 387.6 206.272C392.6 176.472 366.2 140.472 350.6 143.372C333.6 146.472 319.2 197.372 339.6 219.572Z" stroke="#300F0F" stroke-width="6" stroke-miterlimit="10" stroke-linecap="round" stroke-linejoin="round"/>
<path opacity="0.08" d="M354.8 158.272C360.4 158.372 365.2 175.572 365.6 189.572C365.8 196.572 365.1 213.372 360.3 214.272C354.3 215.272 340.6 191.472 346.3 171.172C346.4 170.672 350 158.172 354.8 158.272Z" stroke="#300F0F" stroke-width="6" stroke-miterlimit="10" stroke-linecap="round" stroke-linejoin="round"/>
<path opacity="0.08" d="M630.8 355.472C591.8 379.572 573.4 378.672 563.8 372.372C556.9 367.872 553.9 360.072 535.6 345.572C527.9 339.472 521.8 335.572 514.4 336.372C507.2 337.172 502.3 341.972 501 343.472C496.3 348.472 495.3 354.272 493.9 363.272C492.3 373.672 493.8 376.572 491.8 386.572C490.7 391.772 489.3 395.872 488.3 398.572" stroke="#300F0F" stroke-width="6" stroke-miterlimit="10" stroke-linecap="round" stroke-linejoin="round"/>
<path opacity="0.08" d="M513.4 379.972C506.1 369.372 505.2 359.072 509.4 355.272C514.4 350.872 525.5 356.672 526.7 357.272C539.1 363.872 542.6 377.672 543.4 381.272" stroke="#300F0F" stroke-width="6" stroke-miterlimit="10" stroke-linecap="round" stroke-linejoin="round"/>
<path opacity="0.08" d="M334.1 276.772C326.9 277.972 319.3 284.972 320.8 292.772C321.8 297.972 326.7 302.872 331.5 302.772C340.6 302.672 348.2 284.572 343.5 278.772C340.9 275.572 335.3 276.572 334.1 276.772Z" stroke="#300F0F" stroke-width="6" stroke-miterlimit="10" stroke-linecap="round" stroke-linejoin="round"/>
<path opacity="0.08" d="M380.6 335.572C384.5 322.872 390.3 304.072 407.6 296.572C410 295.572 422.3 290.172 435.4 295.972C449 301.972 453.2 315.572 454.1 318.672C459.8 338.972 444.3 355.072 443.4 355.972C440.3 359.172 437.6 360.572 424.1 366.672C397.8 378.372 384.6 384.172 380.6 381.672C368.8 374.172 379.3 339.972 380.6 335.572Z" stroke="#300F0F" stroke-width="6" stroke-miterlimit="10" stroke-linecap="round" stroke-linejoin="round"/>
<path opacity="0.08" d="M235.6 210.272C236.1 214.572 238.5 233.172 253 240.972C257.3 243.272 266.5 246.772 270.4 242.972C275.5 238.072 266.6 226.172 261.1 202.872C254.5 175.472 259.4 161.172 255.1 160.172C249 158.672 232.3 184.272 235.6 210.272Z" stroke="#300F0F" stroke-width="7.8052" stroke-miterlimit="10" stroke-linecap="round" stroke-linejoin="round"/>
<path opacity="0.08" d="M593.6 384.572C573 373.472 563.3 357.472 566.6 350.572C569.9 343.772 588.3 341.472 609.6 350.572" stroke="#300F0F" stroke-width="6" stroke-miterlimit="10" stroke-linecap="round" stroke-linejoin="round"/>
<path opacity="0.08" d="M505.6 321.572C505.5 317.572 496.6 312.072 491.6 315.572C487.5 318.472 487.5 326.072 490.6 328.572C494.8 331.972 505.7 326.072 505.6 321.572Z" stroke="#300F0F" stroke-width="6" stroke-miterlimit="10" stroke-linecap="round" stroke-linejoin="round"/>
<path opacity="0.08" d="M460.6 230.572C455.6 233.172 453.2 234.472 452.6 236.572C450.5 243.872 465.4 255.072 478.6 260.072C486.6 263.172 496 266.572 502.9 261.672C511.4 255.672 511.1 240.172 505.6 231.572C504.7 230.172 502.4 226.672 498 224.672C495.9 223.672 493.2 222.472 486.6 223.572C473.9 225.772 468 226.672 460.6 230.572Z" stroke="#300F0F" stroke-width="5.3519" stroke-miterlimit="10" stroke-linecap="round" stroke-linejoin="round"/>
<path opacity="0.08" d="M483 237.372C477 237.972 471.9 242.772 474 246.372C475.7 249.272 481.6 250.872 486.3 249.772C491.6 248.572 495.1 244.072 492.9 240.772C491.2 238.172 486.7 236.972 483 237.372Z" stroke="#300F0F" stroke-width="6" stroke-miterlimit="10" stroke-linecap="round" stroke-linejoin="round"/>
<path opacity="0.08" d="M322.3 166.272C320.3 169.772 305 198.072 318.3 225.572C320.5 230.072 327.3 244.272 342.3 249.572C364.3 257.372 388.6 240.572 400.3 224.872C413.2 207.572 413.3 188.372 413 180.872" stroke="#300F0F" stroke-width="6" stroke-miterlimit="10" stroke-linecap="round" stroke-linejoin="round"/>
</g>
<path d="M222.1 244.872C227.071 244.872 231.1 240.843 231.1 235.872C231.1 230.901 227.071 226.872 222.1 226.872C217.13 226.872 213.1 230.901 213.1 235.872C213.1 240.843 217.13 244.872 222.1 244.872Z" fill="#783F21"/>
<path d="M193.9 135.472V83.5721C193.9 63.6721 177.8 47.5721 157.9 47.5721C138 47.5721 121.9 63.6721 121.9 83.5721V135.372C121.9 168.472 94.9999 195.372 61.8999 195.372V347.372C61.8999 360.672 72.5999 371.372 85.8999 371.372H229.9C243.2 371.372 253.9 360.672 253.9 347.372V195.372C220.7 195.472 193.9 168.572 193.9 135.472Z" fill="#72361F"/>
<path d="M575 371.472H231.5L246.5 357.472H588L575 371.472Z" fill="#72361F"/>
<path d="M584.9 195.472V330.872V347.372C584.9 352.872 580.4 357.372 574.9 357.372H558.4H530.5V371.372H575C588.3 371.372 599 360.672 599 347.372V195.372H584.9V195.472Z" fill="#72361F"/>
<path d="M179.9 135.472V83.5721C179.9 63.6721 163.8 47.5721 143.9 47.5721C124 47.5721 107.9 63.6721 107.9 83.5721V135.372C107.9 168.472 80.9999 195.372 47.8999 195.372V347.372C47.8999 360.672 58.5999 371.372 71.8999 371.372H215.9C229.2 371.372 239.9 360.672 239.9 347.372V195.372C206.7 195.472 179.9 168.572 179.9 135.472Z" fill="#D98C40"/>
<path d="M50 357.472C53.8 365.772 62.1 371.472 71.8 371.472H215.8C225.5 371.472 233.8 365.772 237.6 357.472H50Z" fill="#C87634"/>
<path d="M84.7002 401.272C66.4002 375.672 78.4002 327.272 108 311.972C121.8 304.872 135.2 307.072 139.1 307.672C176.3 314.272 208.3 362.772 195.8 391.672C181.6 424.572 108.7 434.672 84.7002 401.272Z" stroke="#CF8139" stroke-width="6" stroke-miterlimit="10" stroke-linecap="round" stroke-linejoin="round"/>
<path d="M48.7002 373.272C40.7002 350.872 59.4002 317.172 84.4002 301.272C131.1 271.472 182.6 314.472 218.4 285.272C248.3 260.772 237 210.472 243.4 210.272C253.1 209.972 301.5 325.372 243.4 386.272C186.7 445.672 64.0002 416.172 48.7002 373.272Z" stroke="#CF8139" stroke-width="6" stroke-miterlimit="10" stroke-linecap="round" stroke-linejoin="round"/>
<path d="M110.4 379.272C101.2 369.272 96.4 351.872 104.7 339.272C110.9 329.872 121.9 327.872 125.4 327.272C141.3 324.272 166.8 330.372 171.4 349.972C175.3 366.472 162.4 384.672 145.4 389.272C133 392.672 119.1 388.772 110.4 379.272Z" stroke="#CF8139" stroke-width="6" stroke-miterlimit="10" stroke-linecap="round" stroke-linejoin="round"/>
<path d="M212.1 348.272C217.4 345.872 218 328.772 209.6 322.472C206.7 320.272 201.3 318.372 197.7 320.872C193.8 323.472 194.3 329.672 194.4 330.672C195.3 340.972 207.1 350.572 212.1 348.272Z" stroke="#CF8139" stroke-width="4.9126" stroke-miterlimit="10" stroke-linecap="round" stroke-linejoin="round"/>
<path d="M44.7001 249.972C52.0001 247.372 62.3001 252.172 66.0001 259.272C74.9001 276.372 45.9001 308.072 36.7001 304.572C27.3001 301.072 28.0001 255.972 44.7001 249.972Z" stroke="#CF8139" stroke-width="6" stroke-miterlimit="10" stroke-linecap="round" stroke-linejoin="round"/>
<path d="M40.3999 222.272C47.3999 228.372 58.3999 236.472 73.3999 242.572C92.5999 250.372 109.7 251.472 120.1 251.272C135.7 247.372 144.3 240.572 149.4 234.272C175.5 202.372 155 130.572 95.3999 57.2721" stroke="#CF8139" stroke-width="6" stroke-miterlimit="10" stroke-linecap="round" stroke-linejoin="round"/>
<path d="M52.0003 192.572C60.0003 212.272 85.8003 228.472 104.4 221.272C117.4 216.272 122.4 201.672 124 197.072C135 165.072 115.9 120.172 94.4003 118.272C72.0003 116.372 38.9003 160.472 52.0003 192.572Z" stroke="#CF8139" stroke-width="6" stroke-miterlimit="10" stroke-linecap="round" stroke-linejoin="round"/>
<path d="M236.4 100.272C230.5 80.2721 213.3 52.9721 197.5 55.3721C179.3 58.1721 174 99.1721 172.4 104.272C160.8 141.572 179.7 188.972 198.4 191.272C212.3 192.972 225.4 168.672 229.4 161.272C232.6 155.372 245.3 130.172 236.4 100.272Z" stroke="#CF8139" stroke-width="6" stroke-miterlimit="10" stroke-linecap="round" stroke-linejoin="round"/>
<path d="M185.5 212.872C182.5 214.472 178.4 217.372 160.4 253.272C151.7 270.572 150.8 273.572 152.4 276.272C157.2 284.472 182 282.672 199 271.372C219.3 257.772 232.8 228.272 223 215.872C215.9 206.772 197.4 206.472 185.5 212.872Z" stroke="#CF8139" stroke-width="6" stroke-miterlimit="10" stroke-linecap="round" stroke-linejoin="round"/>
<path d="M196 227.872C184.9 235.672 174.7 250.672 178.4 255.272C182.6 260.472 206.1 254.172 210.9 240.072C212.8 234.372 212.1 225.972 207.9 223.872C204.3 222.172 199.4 225.472 196 227.872Z" stroke="#CF8139" stroke-width="6" stroke-miterlimit="10" stroke-linecap="round" stroke-linejoin="round"/>
<path d="M129.4 351.272C118.5 357.072 121.9 387.872 130.7 390.572C138.4 392.972 157.6 375.772 152 361.872C148.6 353.172 136 347.772 129.4 351.272Z" stroke="#CF8139" stroke-width="6" stroke-miterlimit="10" stroke-linecap="round" stroke-linejoin="round"/>
<path d="M77.4 271.272C76.9 274.572 86.3 279.172 94.1 279.972C96.8 280.272 101.5 280.672 103.4 277.972C105 275.772 104.3 272.172 102.7 269.972C97.5 262.772 78.1 266.772 77.4 271.272Z" stroke="#CF8139" stroke-width="6" stroke-miterlimit="10" stroke-linecap="round" stroke-linejoin="round"/>
<path d="M64.7002 177.272C65.7002 193.272 83.3002 208.772 92.4002 205.272C100.6 202.072 104.7 182.372 96.1002 170.572C90.1002 162.372 77.2002 156.972 70.1002 161.872C64.0002 166.072 64.6002 175.872 64.7002 177.272Z" stroke="#CF8139" stroke-width="6" stroke-miterlimit="10" stroke-linecap="round" stroke-linejoin="round"/>
<path d="M138.4 72.2721C134.7 74.7721 135.1 86.1721 142.4 92.2721C150.6 99.0721 163 95.5721 164.4 91.2721C166.6 84.5721 144.4 68.1721 138.4 72.2721Z" stroke="#CF8139" stroke-width="6" stroke-miterlimit="10" stroke-linecap="round" stroke-linejoin="round"/>
<path d="M285.4 293.272C271.2 288.172 245.1 285.172 232.4 301.272C218.1 319.372 232.2 347.072 234.4 351.272C236 354.272 249.2 378.172 277.4 382.272C294.1 384.672 318.8 380.472 327.4 364.272C339.4 341.572 315.3 304.072 285.4 293.272Z" stroke="#CF8139" stroke-width="4.9126" stroke-miterlimit="10" stroke-linecap="round" stroke-linejoin="round"/>
<path d="M222.1 292.472C227.071 292.472 231.1 288.443 231.1 283.472C231.1 278.502 227.071 274.472 222.1 274.472C217.13 274.472 213.1 278.502 213.1 283.472C213.1 288.443 217.13 292.472 222.1 292.472Z" fill="#72361F"/>
<path d="M222.1 244.872C227.071 244.872 231.1 240.843 231.1 235.872C231.1 230.901 227.071 226.872 222.1 226.872C217.13 226.872 213.1 230.901 213.1 235.872C213.1 240.843 217.13 244.872 222.1 244.872Z" fill="#72361F"/>
<path d="M222.1 339.972C227.071 339.972 231.1 335.943 231.1 330.972C231.1 326.002 227.071 321.972 222.1 321.972C217.13 321.972 213.1 326.002 213.1 330.972C213.1 335.943 217.13 339.972 222.1 339.972Z" fill="#72361F"/>
<path d="M64.7002 244.872C69.6708 244.872 73.7002 240.843 73.7002 235.872C73.7002 230.901 69.6708 226.872 64.7002 226.872C59.7296 226.872 55.7002 230.901 55.7002 235.872C55.7002 240.843 59.7296 244.872 64.7002 244.872Z" fill="#72361F"/>
<path d="M64.7002 292.472C69.6708 292.472 73.7002 288.443 73.7002 283.472C73.7002 278.502 69.6708 274.472 64.7002 274.472C59.7296 274.472 55.7002 278.502 55.7002 283.472C55.7002 288.443 59.7296 292.472 64.7002 292.472Z" fill="#72361F"/>
<path d="M64.7002 339.972C69.6708 339.972 73.7002 335.943 73.7002 330.972C73.7002 326.002 69.6708 321.972 64.7002 321.972C59.7296 321.972 55.7002 326.002 55.7002 330.972C55.7002 335.943 59.7296 339.972 64.7002 339.972Z" fill="#72361F"/>
<path d="M143.9 96.2721C150.527 96.2721 155.9 90.8995 155.9 84.2721C155.9 77.6446 150.527 72.2721 143.9 72.2721C137.272 72.2721 131.9 77.6446 131.9 84.2721C131.9 90.8995 137.272 96.2721 143.9 96.2721Z" fill="#72361F"/>
</svg>
