<svg width="32" height="20" viewBox="0 0 32 20" fill="none" xmlns="http://www.w3.org/2000/svg">
<path d="M31.0784 10.16C31.0849 4.81712 28.4615 0.482513 25.2189 0.478404C21.9763 0.474295 19.3425 4.80225 19.336 10.1452C19.3295 15.4881 21.9529 19.8227 25.1954 19.8268C28.438 19.8309 31.0719 15.5029 31.0784 10.16Z" fill="#16205F"/>
<path d="M25.1856 8.1905C26.8592 8.1905 28.2159 6.80449 28.2159 5.09476C28.2159 3.38503 26.8592 1.99902 25.1856 1.99902C23.512 1.99902 22.1553 3.38503 22.1553 5.09476C22.1553 6.80449 23.512 8.1905 25.1856 8.1905Z" fill="white"/>
<path d="M12.1658 10.0904C12.1723 4.74754 9.5489 0.412934 6.30632 0.408826C3.06374 0.404717 0.429853 4.73267 0.423367 10.0756C0.41688 15.4185 3.04025 19.7531 6.28283 19.7572C9.52541 19.7613 12.1593 15.4334 12.1658 10.0904Z" fill="#16205F"/>
<path d="M6.34085 8.1905C8.01444 8.1905 9.37115 6.80449 9.37115 5.09476C9.37115 3.38503 8.01444 1.99902 6.34085 1.99902C4.66726 1.99902 3.31055 3.38503 3.31055 5.09476C3.31055 6.80449 4.66726 8.1905 6.34085 8.1905Z" fill="white"/>
</svg>
