<svg width="100" height="103" viewBox="0 0 100 103" fill="none" xmlns="http://www.w3.org/2000/svg">
<path d="M0 51.1764C0 79.4251 22.4432 102.256 50.0947 102.159C77.7462 102.159 100.095 79.2316 100 50.983C99.9053 22.8311 77.5568 0 49.9053 0C22.2538 0 0 22.9278 0 51.1764ZM11.2689 51.0797C11.2689 29.216 28.5038 11.5123 49.9053 11.5123C71.3068 11.5123 88.6364 29.1193 88.6364 50.983C88.6364 72.8466 71.4015 90.5504 50 90.5504C28.5985 90.5504 11.2689 72.9434 11.2689 51.0797Z" fill="#5A64FA"/>
<path d="M90.0784 11.16C90.0849 5.81712 87.4615 1.48251 84.2189 1.4784C80.9763 1.4743 78.3425 5.80225 78.336 11.1452C78.3295 16.4881 80.9529 20.8227 84.1954 20.8268C87.438 20.8309 90.0719 16.5029 90.0784 11.16Z" fill="#16205F"/>
<path d="M84.1856 9.1905C85.8592 9.1905 87.2159 7.80449 87.2159 6.09476C87.2159 4.38503 85.8592 2.99902 84.1856 2.99902C82.512 2.99902 81.1553 4.38503 81.1553 6.09476C81.1553 7.80449 82.512 9.1905 84.1856 9.1905Z" fill="white"/>
<path d="M71.1658 11.0904C71.1723 5.74754 68.5489 1.41293 65.3063 1.40883C62.0637 1.40472 59.4299 5.73267 59.4234 11.0756C59.4169 16.4185 62.0403 20.7531 65.2828 20.7572C68.5254 20.7613 71.1593 16.4334 71.1658 11.0904Z" fill="#16205F"/>
<path d="M65.3408 9.1905C67.0144 9.1905 68.3712 7.80449 68.3712 6.09476C68.3712 4.38503 67.0144 2.99902 65.3408 2.99902C63.6673 2.99902 62.3105 4.38503 62.3105 6.09476C62.3105 7.80449 63.6673 9.1905 65.3408 9.1905Z" fill="white"/>
</svg>
